# xmcd
#
# Track frame offsets: 
#        150
#        19105
#        34529
#        50321
#        67269
#        83679
#        99104
#        114486
#        127416
#        143171
#        158114
#        174672
#        186381
#        204945
#        221890
#
# Disc length: 3591 seconds
#
# Revision: 1
# Processed by: cddbd v1.5.2PL0 Copyright (c) Steve Scherf et al.
# Submitted via: ExactAudioCopy v0.99pb5
#
DISCID=d50e050f
DTITLE=F.R. - Wer bist du
DYEAR=2010
DGENRE=Hip-Hop
TTITLE0=Prioritäten
TTITLE1=Son Of A Preacher Man
TTITLE2=Irgendwann
TTITLE3=Gib es her
TTITLE4=Wahl der Qual
TTITLE5=Ellenbogen raus
TTITLE6=Bändige Beats
TTITLE7=FRRrrrr
TTITLE8=Exzess All Areas
TTITLE9=Sekunde 1
TTITLE10=Mach dir nichts vor
TTITLE11=Kein Weg vorbei
TTITLE12=Wer bist du?
TTITLE13=Bis Du da bist - bist Du da bis...?
TTITLE14=Dafür lebe ich
EXTD=
EXTT0=
EXTT1=
EXTT2=
EXTT3=
EXTT4=
EXTT5=
EXTT6=
EXTT7=
EXTT8=
EXTT9=
EXTT10=
EXTT11=
EXTT12=
EXTT13=
EXTT14=
PLAYORDER=
